<?xml version="1.0" encoding="utf-8"?>
<!-- Generator: Adobe Illustrator 25.3.1, SVG Export Plug-In . SVG Version: 6.00 Build 0)  -->
<svg version="1.1" id="Layer_01" xmlns="http://www.w3.org/2000/svg" xmlns:xlink="http://www.w3.org/1999/xlink" x="0px" y="0px"
	 viewBox="0 0 50 50" enable-background="new 0 0 50 50" xml:space="preserve">
<linearGradient id="SVGID_1_" gradientUnits="userSpaceOnUse" x1="5.6176" y1="25" x2="31.8436" y2="25">
	<stop  offset="0" style="stop-color:#20FFA3"/>
	<stop  offset="1" style="stop-color:#377A62"/>
</linearGradient>
<path display="none" fill="url(#SVGID_1_)" d="M11.67,49.459c6.052-3.494,12.104-6.988,18.156-10.483
	c0.927-0.535,1.603-1.416,1.88-2.45c0.277-1.034,0.132-2.135-0.403-3.062c-0.535-0.927-1.416-1.603-2.45-1.88
	c-1.034-0.277-2.135-0.132-3.062,0.403c-4.035,2.329-8.07,4.659-12.104,6.988c0-3.36,0-6.72,0-10.081c2.717,0,5.433,0,8.15,0
	c1.07,0,2.096-0.425,2.853-1.182c0.757-0.757,1.182-1.783,1.182-2.853c0-1.07-0.425-2.096-1.182-2.853
	c-0.757-0.757-1.783-1.182-2.853-1.182c-2.717,0-5.433,0-8.15,0c0-3.268,0-6.536,0-9.804c4.035,2.329,8.07,4.659,12.104,6.988
	c0.927,0.535,2.028,0.68,3.062,0.403c1.034-0.277,1.915-0.953,2.45-1.88c0.535-0.927,0.68-2.028,0.403-3.062s-0.953-1.915-1.88-2.45
	C23.774,7.529,17.722,4.035,11.67,0.541c-1.248-0.721-2.786-0.721-4.035,0C6.387,1.261,5.618,2.593,5.618,4.035
	c0,13.977,0,27.954,0,41.93c0,1.441,0.769,2.773,2.017,3.494C8.883,50.18,10.421,50.18,11.67,49.459z"/>
<linearGradient id="SVGID_2_" gradientUnits="userSpaceOnUse" x1="5.6176" y1="25" x2="49.9839" y2="25">
	<stop  offset="0" style="stop-color:#C5E6D8"/>
	<stop  offset="1" style="stop-color:#39C492"/>
</linearGradient>
<path display="none" fill="url(#SVGID_2_)" d="M49.984,25c0,1.439-0.767,2.768-2.013,3.487
	c-12.104,6.988-24.209,13.977-36.313,20.965c-1.246,0.719-2.781,0.719-4.027,0c-1.246-0.719-2.013-2.049-2.013-3.487
	c0-13.977,0-27.954,0-41.93c0-1.439,0.767-2.768,2.013-3.487c1.246-0.719,2.781-0.719,4.027,0
	C23.762,7.536,35.866,14.524,47.97,21.513C49.216,22.232,49.984,23.561,49.984,25z M37.904,25L13.671,11.009v27.982L37.904,25z"/>
<linearGradient id="SVGID_3_" gradientUnits="userSpaceOnUse" x1="50" y1="25" x2="6.701" y2="25">
	<stop  offset="0" style="stop-color:#C5E6D8"/>
	<stop  offset="1" style="stop-color:#39C492"/>
</linearGradient>
<path display="none" fill="url(#SVGID_3_)" d="M47.983,21.506C35.878,14.517,23.774,7.529,11.67,0.541
	c-1.248-0.721-2.786-0.721-4.035,0C6.387,1.261,5.618,2.593,5.618,4.035c0,13.977,0,27.954,0,41.93c0,1.07,0.425,2.096,1.182,2.853
	C7.556,49.575,8.582,50,9.652,50c1.07,0,2.096-0.425,2.853-1.182c0.757-0.757,1.182-1.783,1.182-2.853c0-11.647,0-23.295,0-34.942
	c10.087,5.824,20.174,11.647,30.261,17.471c0.927,0.535,2.028,0.68,3.062,0.403c1.034-0.277,1.915-0.953,2.45-1.88
	c0.535-0.927,0.68-2.028,0.403-3.062C49.586,22.922,48.909,22.041,47.983,21.506z"/>
<g>
	<path fill="#FFFFFF" d="M25.083,50c-1.003,0.003-1.763-0.364-2.415-1.019C15.479,41.755,8.276,34.544,1.1,27.304
		c-1.481-1.494-1.465-3.141,0.034-4.651c7.181-7.234,14.38-14.45,21.59-21.655c1.236-1.235,2.745-1.294,4.215-0.345
		c0.972,0.627,1.583,1.596,2.377,2.391c2.214,2.216,4.423,4.438,6.621,6.671c1.399,1.421,1.541,3.041,0.403,4.224
		c-1.104,1.147-2.96,1.001-4.333-0.364c-1.984-1.974-3.978-3.939-5.921-5.954c-0.795-0.824-1.397-0.783-2.187,0.017
		c-5.372,5.439-10.763,10.859-16.175,16.259c-0.801,0.799-0.809,1.385-0.001,2.19c5.416,5.395,10.809,10.813,16.182,16.251
		c0.798,0.808,1.389,0.822,2.18,0.001c2.03-2.105,4.101-4.17,6.189-6.217c1.283-1.258,3.015-1.256,4.111-0.068
		c1.036,1.124,1.14,2.581,0.029,3.73c-3.108,3.212-6.291,6.35-9.455,9.506C26.432,49.82,25.733,49.972,25.083,50z"/>
	<path fill="#FFFFFF" d="M40.352,34.854c-1.111-0.066-1.997-0.498-2.527-1.541c-0.564-1.111-0.365-2.159,0.413-3.026
		c1.224-1.364,2.542-2.644,3.823-3.956c1.17-1.198,1.177-1.373,0.031-2.529c-1.203-1.214-2.431-2.405-3.617-3.637
		c-1.298-1.349-1.327-2.878-0.128-4.117c1.075-1.11,2.739-1.079,4.017,0.167c2.209,2.154,4.396,4.332,6.547,6.544
		c1.377,1.417,1.475,3.044,0.131,4.478c-2.223,2.372-4.563,4.634-6.87,6.926C41.684,34.649,41.062,34.89,40.352,34.854z"/>
	<path fill="#FFFFFF" d="M31.046,25.126c0.002,3.391-2.561,5.962-5.941,5.962c-3.376,0-5.941-2.578-5.938-5.966
		c0.003-3.335,2.641-5.998,5.942-5.998C28.408,19.124,31.045,21.79,31.046,25.126z"/>
</g>
</svg>
