<?xml version="1.0" encoding="utf-8"?>
<!-- Generator: Adobe Illustrator 25.3.1, SVG Export Plug-In . SVG Version: 6.00 Build 0)  -->
<svg version="1.1" id="Layer_01" xmlns="http://www.w3.org/2000/svg" xmlns:xlink="http://www.w3.org/1999/xlink" x="0px" y="0px"
	 viewBox="0 0 50 50" enable-background="new 0 0 50 50" xml:space="preserve">
<linearGradient id="SVGID_1_" gradientUnits="userSpaceOnUse" x1="5.6176" y1="25" x2="31.8436" y2="25">
	<stop  offset="0" style="stop-color:#20FFA3"/>
	<stop  offset="1" style="stop-color:#377A62"/>
</linearGradient>
<path display="none" fill="url(#SVGID_1_)" d="M11.67,49.459c6.052-3.494,12.104-6.988,18.156-10.483
	c0.927-0.535,1.603-1.416,1.88-2.45c0.277-1.034,0.132-2.135-0.403-3.062c-0.535-0.927-1.416-1.603-2.45-1.88
	c-1.034-0.277-2.135-0.132-3.062,0.403c-4.035,2.329-8.07,4.659-12.104,6.988c0-3.36,0-6.72,0-10.081c2.717,0,5.433,0,8.15,0
	c1.07,0,2.096-0.425,2.853-1.182c0.757-0.757,1.182-1.783,1.182-2.853c0-1.07-0.425-2.096-1.182-2.853
	c-0.757-0.757-1.783-1.182-2.853-1.182c-2.717,0-5.433,0-8.15,0c0-3.268,0-6.536,0-9.804c4.035,2.329,8.07,4.659,12.104,6.988
	c0.927,0.535,2.028,0.68,3.062,0.403c1.034-0.277,1.915-0.953,2.45-1.88c0.535-0.927,0.68-2.028,0.403-3.062s-0.953-1.915-1.88-2.45
	C23.774,7.529,17.722,4.035,11.67,0.541c-1.248-0.721-2.786-0.721-4.035,0C6.387,1.261,5.618,2.593,5.618,4.035
	c0,13.977,0,27.954,0,41.93c0,1.441,0.769,2.773,2.017,3.494C8.883,50.18,10.421,50.18,11.67,49.459z"/>
<linearGradient id="SVGID_2_" gradientUnits="userSpaceOnUse" x1="5.6176" y1="25" x2="49.9839" y2="25">
	<stop  offset="0" style="stop-color:#C5E6D8"/>
	<stop  offset="1" style="stop-color:#39C492"/>
</linearGradient>
<path display="none" fill="url(#SVGID_2_)" d="M49.984,25c0,1.439-0.767,2.768-2.013,3.487
	c-12.104,6.988-24.209,13.977-36.313,20.965c-1.246,0.719-2.781,0.719-4.027,0c-1.246-0.719-2.013-2.049-2.013-3.487
	c0-13.977,0-27.954,0-41.93c0-1.439,0.767-2.768,2.013-3.487c1.246-0.719,2.781-0.719,4.027,0
	C23.762,7.536,35.866,14.524,47.97,21.513C49.216,22.232,49.984,23.561,49.984,25z M37.904,25L13.671,11.009v27.982L37.904,25z"/>
<linearGradient id="SVGID_3_" gradientUnits="userSpaceOnUse" x1="50" y1="25" x2="6.701" y2="25">
	<stop  offset="0" style="stop-color:#C5E6D8"/>
	<stop  offset="1" style="stop-color:#39C492"/>
</linearGradient>
<path display="none" fill="url(#SVGID_3_)" d="M47.983,21.506C35.878,14.517,23.774,7.529,11.67,0.541
	c-1.248-0.721-2.786-0.721-4.035,0C6.387,1.261,5.618,2.593,5.618,4.035c0,13.977,0,27.954,0,41.93c0,1.07,0.425,2.096,1.182,2.853
	C7.556,49.575,8.582,50,9.652,50c1.07,0,2.096-0.425,2.853-1.182c0.757-0.757,1.182-1.783,1.182-2.853c0-11.647,0-23.295,0-34.942
	c10.087,5.824,20.174,11.647,30.261,17.471c0.927,0.535,2.028,0.68,3.062,0.403c1.034-0.277,1.915-0.953,2.45-1.88
	c0.535-0.927,0.68-2.028,0.403-3.062C49.586,22.922,48.909,22.041,47.983,21.506z"/>
<g>
	<path fill="#FFFFFF" d="M24.053,50c-0.372-0.031-0.744-0.064-1.116-0.093c-2.31-0.177-4.542-0.699-6.708-1.515
		c-0.639-0.241-1.05-0.69-1.257-1.335c-0.794-2.474-1.384-4.994-1.724-7.572c-0.224-1.697-0.34-3.4-0.37-5.11
		c-0.002-0.132,0.02-0.283,0.085-0.394c0.155-0.262,0.47-0.256,0.728-0.008c0.551,0.531,1.09,1.074,1.656,1.589
		c5.194,4.721,11.187,7.983,17.969,9.784c1.114,0.296,2.251,0.506,3.379,0.748c0.241,0.052,0.444,0.133,0.486,0.403
		c0.04,0.258-0.117,0.4-0.327,0.513c-2.255,1.21-4.615,2.133-7.149,2.544c-1.137,0.185-2.289,0.274-3.435,0.407
		c-0.088,0.01-0.176,0.025-0.263,0.038C25.356,50,24.704,50,24.053,50z"/>
	<path fill="#FFFFFF" d="M14.352,23.398c0.293-1.765,0.763-3.491,1.295-5.199c0.207-0.663,0.606-1.122,1.234-1.423
		c3.082-1.477,6.292-2.574,9.644-3.247c0.55-0.11,1.053,0.048,1.493,0.379c1.046,0.788,2.106,1.559,3.12,2.387
		c1.566,1.278,2.992,2.707,4.352,4.203c0.518,0.57,0.71,1.199,0.647,1.962c-0.184,2.242-0.51,4.46-1.049,6.643
		c-0.261,1.056-0.577,2.098-0.875,3.145c-0.175,0.616-0.572,1.04-1.148,1.316c-2.934,1.405-5.976,2.492-9.165,3.155
		c-0.221,0.046-0.441,0.11-0.664,0.137c-0.501,0.059-0.944-0.104-1.353-0.387c-2.64-1.83-5.045-3.928-7.208-6.303
		c-0.137-0.15-0.271-0.304-0.407-0.455c-0.385-0.426-0.547-0.931-0.529-1.498"/>
	<path fill="#FFFFFF" d="M0.363,28.757c-0.005-0.622,0.228-1.073,0.589-1.474c1.639-1.818,3.414-3.491,5.338-5.005
		c1.454-1.144,2.98-2.181,4.566-3.133c0.195-0.117,0.388-0.184,0.59-0.04c0.211,0.151,0.212,0.36,0.147,0.591
		c-0.517,1.859-0.899,3.746-1.155,5.658c-0.353,2.637-0.457,5.284-0.322,7.942c0.161,3.173,0.662,6.29,1.527,9.345
		c0.29,1.023,0.64,2.029,0.968,3.041c0.066,0.205,0.1,0.396-0.066,0.568c-0.164,0.17-0.371,0.183-0.621,0.029
		c-2.601-1.596-4.864-3.57-6.697-6.019c-2.016-2.691-3.516-5.638-4.345-8.907c-0.201-0.791-0.338-1.599-0.501-2.399
		C0.363,28.868,0.365,28.777,0.363,28.757z"/>
	<path fill="#FFFFFF" d="M49.703,21.316c-0.003,0.553-0.228,1.016-0.603,1.401c-0.955,0.978-1.892,1.977-2.888,2.912
		c-2.132,2.001-4.484,3.715-6.997,5.208c-0.13,0.077-0.307,0.128-0.453,0.111c-0.264-0.03-0.375-0.282-0.307-0.584
		c0.285-1.252,0.602-2.497,0.844-3.757c0.543-2.822,0.749-5.676,0.693-8.549c-0.092-4.674-0.924-9.212-2.496-13.615
		c-0.091-0.254-0.213-0.517,0.062-0.735c0.273-0.217,0.502-0.042,0.731,0.103c5.656,3.557,9.233,8.629,10.945,15.052
		c0.189,0.71,0.299,1.441,0.443,2.163C49.695,21.12,49.695,21.219,49.703,21.316z"/>
	<path fill="#FFFFFF" d="M49.99,26.247c-0.127,2.288-0.505,4.527-1.26,6.691c-1.561,4.47-4.114,8.26-7.763,11.299
		c-0.573,0.477-1.197,0.648-1.928,0.492c-4.244-0.904-8.257-2.416-12.039-4.544c-0.198-0.111-0.308-0.262-0.273-0.494
		c0.035-0.239,0.207-0.332,0.417-0.387c1.78-0.461,3.522-1.038,5.224-1.73c5.971-2.429,11.146-6.01,15.518-10.747
		c0.43-0.466,0.845-0.948,1.258-1.43c0.153-0.179,0.326-0.278,0.555-0.195c0.231,0.083,0.303,0.273,0.293,0.508
		C49.983,25.889,49.99,26.068,49.99,26.247z"/>
	<path fill="#FFFFFF" d="M0.094,23.75c0.121-2.72,0.649-5.354,1.675-7.88c1.619-3.986,4.035-7.395,7.364-10.142
		c0.562-0.464,1.179-0.617,1.889-0.465c4.225,0.908,8.227,2.406,11.997,4.522c0.201,0.113,0.346,0.247,0.318,0.495
		c-0.028,0.249-0.196,0.348-0.421,0.408c-4.396,1.16-8.513,2.957-12.338,5.415c-3.628,2.331-6.834,5.144-9.616,8.439
		c-0.042,0.05-0.084,0.1-0.13,0.145c-0.134,0.132-0.29,0.173-0.47,0.106c-0.19-0.07-0.281-0.214-0.291-0.41
		c-0.006-0.105,0.001-0.212,0.005-0.317C0.08,23.961,0.088,23.855,0.094,23.75z"/>
	<path fill="#FFFFFF" d="M25.17,0.003c2.633-0.045,5.601,0.477,8.483,1.528c0.767,0.279,1.242,0.772,1.485,1.547
		c0.824,2.62,1.451,5.284,1.741,8.015c0.161,1.511,0.209,3.034,0.307,4.552c0.015,0.229-0.043,0.427-0.272,0.522
		c-0.225,0.094-0.403,0.004-0.566-0.162c-3.697-3.746-7.94-6.713-12.726-8.903c-3.23-1.477-6.592-2.535-10.087-3.174
		c-0.088-0.016-0.176-0.034-0.264-0.049c-0.216-0.038-0.357-0.162-0.393-0.379c-0.036-0.22,0.069-0.38,0.262-0.477
		c0.602-0.303,1.199-0.619,1.812-0.899C18.059,0.708,21.328,0.033,25.17,0.003z"/>
</g>
</svg>
