<?xml version="1.0" encoding="utf-8"?>
<!-- Generator: Adobe Illustrator 25.3.1, SVG Export Plug-In . SVG Version: 6.00 Build 0)  -->
<svg version="1.1" id="Layer_01" xmlns="http://www.w3.org/2000/svg" xmlns:xlink="http://www.w3.org/1999/xlink" x="0px" y="0px"
	 viewBox="0 0 50 50" enable-background="new 0 0 50 50" xml:space="preserve">
<linearGradient id="SVGID_1_" gradientUnits="userSpaceOnUse" x1="5.6176" y1="25" x2="31.8436" y2="25">
	<stop  offset="0" style="stop-color:#2A91FF"/>
	<stop  offset="0.1141" style="stop-color:#288CF7"/>
	<stop  offset="0.2955" style="stop-color:#227DE0"/>
	<stop  offset="0.5217" style="stop-color:#1965BA"/>
	<stop  offset="0.781" style="stop-color:#0C4486"/>
	<stop  offset="1" style="stop-color:#002455"/>
</linearGradient>
<path display="none" fill="url(#SVGID_1_)" d="M11.67,49.459c6.052-3.494,12.104-6.988,18.156-10.483
	c0.927-0.535,1.603-1.416,1.88-2.45c0.277-1.034,0.132-2.135-0.403-3.062c-0.535-0.927-1.416-1.603-2.45-1.88
	c-1.034-0.277-2.135-0.132-3.062,0.403c-4.035,2.329-8.07,4.659-12.104,6.988c0-3.36,0-6.72,0-10.081c2.717,0,5.433,0,8.15,0
	c1.07,0,2.096-0.425,2.853-1.182c0.757-0.757,1.182-1.783,1.182-2.853c0-1.07-0.425-2.096-1.182-2.853
	c-0.757-0.757-1.783-1.182-2.853-1.182c-2.717,0-5.433,0-8.15,0c0-3.268,0-6.536,0-9.804c4.035,2.329,8.07,4.659,12.104,6.988
	c0.927,0.535,2.028,0.68,3.062,0.403c1.034-0.277,1.915-0.953,2.45-1.88c0.535-0.927,0.68-2.028,0.403-3.062s-0.953-1.915-1.88-2.45
	C23.774,7.529,17.722,4.035,11.67,0.541c-1.248-0.721-2.786-0.721-4.035,0C6.387,1.261,5.618,2.593,5.618,4.035
	c0,13.977,0,27.954,0,41.93c0,1.441,0.769,2.773,2.017,3.494C8.883,50.18,10.421,50.18,11.67,49.459z"/>
<linearGradient id="SVGID_2_" gradientUnits="userSpaceOnUse" x1="5.6176" y1="25" x2="49.9839" y2="25">
	<stop  offset="0" style="stop-color:#BEE0FF"/>
	<stop  offset="0.2549" style="stop-color:#9BC8EF"/>
	<stop  offset="0.8167" style="stop-color:#438CC8"/>
	<stop  offset="1" style="stop-color:#2577BA"/>
</linearGradient>
<path display="none" fill="url(#SVGID_2_)" d="M49.984,25c0,1.439-0.767,2.768-2.013,3.487
	c-12.104,6.988-24.209,13.977-36.313,20.965c-1.246,0.719-2.781,0.719-4.027,0c-1.246-0.719-2.013-2.049-2.013-3.487
	c0-13.977,0-27.954,0-41.93c0-1.439,0.767-2.768,2.013-3.487c1.246-0.719,2.781-0.719,4.027,0
	C23.762,7.536,35.866,14.524,47.97,21.513C49.216,22.232,49.984,23.561,49.984,25z M37.904,25L13.671,11.009v27.982L37.904,25z"/>
<linearGradient id="SVGID_3_" gradientUnits="userSpaceOnUse" x1="5.6176" y1="25" x2="50" y2="25">
	<stop  offset="0" style="stop-color:#2577BA"/>
	<stop  offset="1" style="stop-color:#BEE0FF"/>
</linearGradient>
<path display="none" fill="url(#SVGID_3_)" d="M47.983,21.506C35.878,14.517,23.774,7.529,11.67,0.541
	c-1.248-0.721-2.786-0.721-4.035,0C6.387,1.261,5.618,2.593,5.618,4.035c0,13.977,0,27.954,0,41.93c0,1.07,0.425,2.096,1.182,2.853
	C7.556,49.575,8.582,50,9.652,50c1.07,0,2.096-0.425,2.853-1.182c0.757-0.757,1.182-1.783,1.182-2.853c0-11.647,0-23.295,0-34.942
	c10.087,5.824,20.174,11.647,30.261,17.471c0.927,0.535,2.028,0.68,3.062,0.403c1.034-0.277,1.915-0.953,2.45-1.88
	c0.535-0.927,0.68-2.028,0.403-3.062C49.586,22.922,48.909,22.041,47.983,21.506z"/>
<path fill="#FFFFFF" d="M50,24.976C49.987,38.826,38.817,50.016,25.022,50C11.207,49.984-0.024,38.764,0,25
	C0.024,11.117,11.211-0.032,25.085,0C38.888,0.032,50.013,11.185,50,24.976z M14.927,38.698c-0.058-0.31-0.105-0.622-0.176-0.929
	c-0.323-1.405-0.324-1.402,0.932-2.041c3.212-1.634,6.22-3.586,9.035-5.841c0.388-0.311,0.487-0.471,0.102-0.923
	c-0.628-0.739-1.287-1.042-2.244-0.786c-0.667,0.178-1.367,0.234-2.055,0.327c-0.321,0.043-0.624,0.094-0.867,0.341
	c-2.339,2.379-4.68,4.756-7.024,7.131c-0.176,0.178-0.312,0.325-0.07,0.569c0.745,0.752,1.475,1.518,2.211,2.279
	C14.823,38.782,14.875,38.74,14.927,38.698z M30.107,15.341c-0.679,0.331-1.324,0.717-1.933,1.165
	c-2.319,1.707-4.384,3.703-6.444,5.704c-1.296,1.258-1.264,1.246,0.002,2.546c0.443,0.455,0.676,0.39,1.088-0.026
	c2.654-2.681,5.334-5.335,8.007-7.997c0.45-0.448,0.867-0.937,1.683-1.192C31.608,15,30.87,14.969,30.107,15.341z M31.613,16.97
	c-2.762,2.741-5.523,5.481-8.286,8.221c-0.299,0.297-0.732,0.515-0.159,1.008c0.431,0.371,0.659,0.638,1.238,0.118
	c2.524-2.269,5.109-4.469,7.669-6.698c0.525-0.457,1.057-0.908,1.553-1.396c0.365-0.358,0.438-0.818,0.2-1.284
	c-0.214-0.42-0.57-0.646-1.016-0.653C32.257,16.289,31.943,16.643,31.613,16.97z M36.826,16.586c0.235-0.07,0.588-0.012,0.666-0.291
	c0.066-0.235-0.234-0.37-0.39-0.53c-0.526-0.541-1.042-1.095-1.604-1.597c-0.47-0.419-0.411-0.729,0.02-1.135
	c0.824-0.775,1.573-1.632,2.419-2.381c0.654-0.579,0.35-0.79-0.236-1.04c-1.376-0.587-2.956-0.299-4.02,0.758
	c-1.052,1.046-1.375,2.58-0.829,3.938c0.57,1.418,1.868,2.311,3.515,2.32C36.425,16.623,36.637,16.642,36.826,16.586z
	 M25.551,26.386c-1.171,1.029-1.156,1.027,0.022,2.115c0.281,0.26,0.451,0.347,0.769,0.033c2.125-2.097,4.318-4.129,6.081-6.561
	c0.61-0.841,1.19-1.703,1.536-2.956C31.038,21.576,28.291,23.977,25.551,26.386z M39.403,11.105c-0.226-0.393-0.42-0.51-0.769-0.123
	c-0.408,0.452-0.854,0.87-1.286,1.3c-1.318,1.313-1.327,1.321-0.027,2.593c0.36,0.352,0.683,1.051,1.142,0.93
	c0.636-0.168,0.955-0.879,1.213-1.508c0.179-0.437,0.238-0.897,0.224-1.367C39.914,12.272,39.73,11.675,39.403,11.105z
	 M12.027,37.086c-0.13-0.123-0.273-0.249-0.441-0.067c-0.496,0.536-1.119,0.959-1.554,1.709c1.313,0.083,2.519,0.159,3.984,0.251
	C13.235,38.235,12.632,37.66,12.027,37.086z M20.196,24.264c-0.159-0.159-0.3-0.256-0.501-0.049
	c-0.626,0.644-1.261,1.28-1.892,1.919c0.035,0.05,0.07,0.1,0.104,0.15c1.136-0.247,2.271-0.493,3.555-0.772
	C20.967,25.025,20.578,24.648,20.196,24.264z M21.139,27.595c0.67-0.171,1.302-0.061,1.951-0.337
	C22.165,26.151,22.113,26.16,21.139,27.595z M38.855,12.438c-0.396,0.015-0.175,0.402-0.203,0.633
	c-0.021,0.172-0.035,0.347-0.082,0.512c-0.054,0.186-0.234,0.398,0.039,0.517c0.223,0.097,0.386-0.088,0.477-0.277
	c0.099-0.207,0.162-0.431,0.229-0.613C39.236,12.861,39.284,12.421,38.855,12.438z"/>
</svg>
